<?xml version="1.0" encoding="utf-8"?>
<!-- Generator: Adobe Illustrator 25.2.3, SVG Export Plug-In . SVG Version: 6.00 Build 0)  -->
<svg version="1.1" id="Layer_1" xmlns="http://www.w3.org/2000/svg" xmlns:xlink="http://www.w3.org/1999/xlink" x="0px" y="0px"
	 viewBox="0 0 841.9 595.3" style="enable-background:new 0 0 841.9 595.3;" xml:space="preserve">
<style type="text/css">
	.st0{fill-rule:evenodd;clip-rule:evenodd;fill:url(#SVGID_1_);}
	.st1{fill-rule:evenodd;clip-rule:evenodd;fill:url(#SVGID_2_);}
	.st2{fill-rule:evenodd;clip-rule:evenodd;fill:#308B6F;}
	.st3{fill-rule:evenodd;clip-rule:evenodd;fill:#FFFFFF;}
	.st4{fill-rule:evenodd;clip-rule:evenodd;fill:#FFFFFE;}
	.st5{fill-rule:evenodd;clip-rule:evenodd;fill:#46A093;}
	.st6{fill-rule:evenodd;clip-rule:evenodd;fill:#007F5B;}
	.st7{fill-rule:evenodd;clip-rule:evenodd;fill:#83E883;}
	.st8{fill-rule:evenodd;clip-rule:evenodd;fill:#82E782;}
</style>
<symbol  id="C" viewBox="-32 -17 64 34">
	<g>
		
			<linearGradient id="SVGID_1_" gradientUnits="userSpaceOnUse" x1="7770.6416" y1="-8358.915" x2="7770.6416" y2="-8357.915" gradientTransform="matrix(63.9925 0 0 33.961 -497262.9062 283860.125)">
			<stop  offset="0" style="stop-color:#A5FFAF"/>
			<stop  offset="1" style="stop-color:#64E178"/>
		</linearGradient>
		<path class="st0" d="M32-17c-8.2,5.7-13.8,4.5-16.1,5.6c-1.2,0.6-1.8,1.6-2.2,2.4c-2.3-3.6-6.4-5.8-13.1-5.8l-0.2,0l-0.2,0l-0.3,0
			l-0.3,0l-0.2,0l-0.2,0c-6.7,0-10.8,2.3-13.1,5.8c-0.3-0.8-1-1.8-2.2-2.4c-2.3-1.2-7.9,0.1-16.1-5.6c0,0-0.1,1.2,0.6,3
			c0.7,1.8,3.1,5.5,3.5,9.9c0.1,0.6,0.2,1.3,0.3,1.9l1.6,0.1l-1.2,1.3c0.6,1.7,1.5,3.4,2.9,4.6l2.8-1.5L-22.5,5
			c1.6,0.8,3.7,0.9,6.4,0.2c-0.1,0.5-0.3,1.1-0.3,1.7c0,1.8-0.9,5.7,9.4,7.4c0.4,0.9,1.2,1.6,2.1,1.9c1,0.3,0.2,0.9,4.8,0.9l0,0h0.1
			c4.6-0.1,4.8-0.9,4.8-0.9C5.5,14.5,7,14.2,7,14.2c10.3-1.7,9.5-5.6,9.4-7.4c0-0.6-0.1-1.2-0.3-1.7c1.4,0.4,2.6,0.5,3.6,0.5l-0.2-2
			l1.1,1.9l0,0l0-1.6l1,1.3c1.8-0.6,3.2-1.9,4.1-3.3l-1.7-1.9l2.5,0.4c0.5-1.2,0.9-2.4,1.1-3.7l-1.9-0.7l2-0.1l-1.3-0.7L28-4.9
			c0.6-4.1,2.8-7.5,3.4-9.1C32.1-15.8,32-17,32-17"/>
		
			<linearGradient id="SVGID_2_" gradientUnits="userSpaceOnUse" x1="7770.6758" y1="-8231.2666" x2="7770.6758" y2="-8232.2666" gradientTransform="matrix(64.0101 0 0 22.6343 -497402.0312 186314.8438)">
			<stop  offset="0" style="stop-color:#23C386"/>
			<stop  offset="1" style="stop-color:#139E83"/>
		</linearGradient>
		<path class="st1" d="M32-17L32-17c0,0,0.1,1.2-0.6,3C30.8-12.3,28.6-9,28-4.9l-1.4,0.2L27.9-4l0,0l-2,0.1l1.9,0.7
			c-0.2,1.3-0.6,2.5-1.1,3.7l-2.5-0.4l1.7,1.9c-0.9,1.5-2.3,2.7-4.1,3.3l-1-1.3l0,1.6l0,0l-1.1-1.9l0.2,2c-1.1,0.1-2.3-0.1-3.6-0.5
			c-0.6-1.3-1.1-2.7-1.1-3.4c-0.6-4.5-0.1-5.9-0.1-5.9c1-3.7,10.3-5.3,13.5-8C30.6-13.9,31.6-16,32-17L32-17z M-15.4,3.2
			c-0.3,0.7-0.2,0.7-0.8,2c-2.7,0.8-4.7,0.6-6.4-0.2l1.1-2.7l-2.8,1.5c-1.4-1.2-2.3-2.9-2.9-4.6l1.2-1.3l-1.6-0.1
			c-0.1-0.6-0.3-1.3-0.3-1.9c-0.5-4.4-2.9-8.1-3.5-9.9c-0.7-1.8-0.6-3-0.6-3l0,0c0.5,1.3,1.2,2.4,2.1,3.4c1.4,1.6,2.7,2.4,4.1,3
			l4.7,2c0.8,0.3,3.8,1.6,4.9,2.6s1.5,1.5,1.5,3.3s-0.1,3.1-0.2,3.4S-15.1,2.5-15.4,3.2L-15.4,3.2z"/>
		<path class="st2" d="M4.8-0.2l5.9-2L12-2.6l0,0c0.5-0.1,0.9-0.2,1.2-0.2C14-2.8,14.1-2,14.1-2s-0.6-0.5-1.8,0c0.1,0.5,0.1,1,0,1.5
			c-0.4,2-2,3.6-4.5,3.6C6,3.1,4.5,2.3,3.7,1.1L1.9,0.8L4.8-0.2L4.8-0.2z"/>
		<path class="st3" d="M12.3-1.3c0,0-0.3-0.5-1.2-0.3S3.9,0.9,3.9,0.9s1,2.3,4.3,2.1C11.8,2.7,12.5-0.9,12.3-1.3"/>
		<path class="st2" d="M-0.2,11.3C-8.3,11.1-12,7.5-12.6,6.9c-0.1,0-0.2-0.1-0.3-0.1c-0.5-0.3-0.8-0.6-0.9-1
			c-0.2-0.7,0.4-1.4,0.4-1.4l0.1-0.2c0,0-0.3,0.9-0.2,1.4c0.1,0.3,0.4,0.6,0.8,0.7c0.6,0.3,2.2,0.1,4.2-0.2C-6.2,6-3.1,5.6,0.2,5.7
			C3.6,5.6,6.6,6,8.9,6.3c2,0.3,3.6,0.5,4.2,0.2c0.4-0.2,0.7-0.5,0.8-0.7c0.1-0.5-0.2-1.4-0.2-1.4l0.1,0.2c0,0,0.5,0.7,0.4,1.4
			c-0.1,0.4-0.4,0.8-0.9,1c-0.1,0-0.2,0.1-0.3,0.1c-0.6,0.6-4.3,4.1-12.4,4.4v0c-0.1,0-0.3,0-0.4,0L-0.2,11.3L-0.2,11.3L-0.2,11.3z"
			/>
		<path class="st4" d="M-0.5,10.9l-2.2-0.2C-2.8,10.5-3,10.3-3,10c0-0.3,0.6-1.3,0.6-1.3l0,0l0.9-1.5L-0.5,9
			C-0.3,9.6,0.1,10.6-0.5,10.9L-0.5,10.9z M-3.6,10.5c-0.9-0.2-1.7-0.4-2.6-0.6c-0.1-0.2-0.1-0.6,0.3-1.6l0-0.1l0.5-1l1.1,1.6
			C-3.9,9.2-3.4,10.2-3.6,10.5L-3.6,10.5z M-7,9.6c-0.7-0.2-1.4-0.5-2.1-0.9c-0.1-0.4,0.2-0.9,0.4-1.3l-0.7,1.1l0.9-1.3l0.9,1.2
			C-7.4,8.7-7,9.3-7,9.6L-7,9.6z M-11,7l2-0.2C-9,7.2-9.5,8-9.7,8.3l0,0.1C-10.3,8.1-10.7,7.6-11,7L-11,7z M-8.5,6.7l2.8-0.3
			c0.2,0.3-0.2,1.2-0.4,1.7L-6.6,9l0,0h0L-8.5,6.7z M-4.6,6.3l2.7-0.1C-1.6,6.5-2,7.4-2.2,7.8l-1.1,1.8l-0.7-1
			C-4.3,7.9-5,6.6-4.6,6.3L-4.6,6.3z M-0.7,6.1l0.8,0l0.8,0c0.1,0.1,0.2,0.3,0.3,0.4c0.1,0.4-0.3,1.5-0.3,1.5v0L0.2,9.6l-0.8-1.5v0
			c0,0-0.4-1.1-0.3-1.5C-0.9,6.4-0.8,6.2-0.7,6.1L-0.7,6.1z M2.2,6.1l2.7,0.1c0.4,0.4-0.3,1.6-0.7,2.2L3.5,9.5L2.5,7.8
			C2.3,7.5,1.9,6.5,2.2,6.1L2.2,6.1z M6,6.4l2.2,0.2C8.4,7.2,6.9,9,6.9,9L6.5,8.1C6.3,7.7,5.9,6.7,6,6.4L6,6.4z M9.3,6.8l2,0.2
			C11,7.6,10.6,8.1,10,8.4l0,0C9.8,8.1,9.3,7.2,9.3,6.8L9.3,6.8z M9.4,8.7C8.7,9.1,8,9.4,7.3,9.6c0-0.3,0.4-1,0.6-1.2l0.9-1.2L9,7.5
			C9.2,7.8,9.5,8.4,9.4,8.7L9.4,8.7z M6.4,9.9c-0.8,0.2-1.7,0.4-2.6,0.6c-0.2-0.3,0.4-1.3,0.7-1.8l1-1.6l0.5,1.1l0,0.1
			C6.6,9.2,6.5,9.7,6.4,9.9L6.4,9.9z M3,10.6l-2.2,0.2C0.2,10.6,0.6,9.5,0.8,9l0.9-1.8l0.9,1.5l0,0c0,0,0.6,1,0.6,1.3
			C3.3,10.3,3.1,10.5,3,10.6L3,10.6z"/>
		<path class="st5" d="M-0.4-12.1c0.5,0.3-0.4,0.6-1.8,0.8s-3-0.4-3-0.8c0-0.4,1.9-1.1,2.8-1.2C-1.5-13.4-0.3-12.1-0.4-12.1
			L-0.4-12.1z M4.1-13c0.5,0.1,0.8,0.4,0.5,0.6S3.4-11.8,2.4-12S1-12.7,1.5-13C1.9-13.3,4.1-13,4.1-13z M2.4-11.1
			c1.3-0.1,0.3,1.4-0.5,1.4s-1.7-0.1-1.5-0.6S2.4-11.1,2.4-11.1L2.4-11.1z M-1.5-10c0.4,0.5-1.1,0.4-1.4,0.2s-0.1-0.5,0.3-0.6
			C-2.2-10.5-1.5-10-1.5-10L-1.5-10z M7.8-11.9c0.4,0.2-0.1,0.3-0.4,0.3S5.7-12,6.2-12.2C6.7-12.4,7.8-11.9,7.8-11.9L7.8-11.9z
			 M-7.1-11.8c0.2,0,0.8-0.1,0.5,0.2s-1.2,0.8-1.6,0.8c-0.4,0-0.3-0.4,0-0.6C-7.8-11.8-7.1-11.9-7.1-11.8L-7.1-11.8z"/>
		<path class="st2" d="M3.2,1.5c0,0,0.4,2.9,5.8,3C9,4.4,4.6,4.1,3.2,1.5 M-3,1.5c0,0-0.4,2.9-5.8,3C-8.8,4.4-4.3,4.1-3,1.5"/>
		<path class="st6" d="M9.2-0.6c0,0-4,1-3.8,1.7s1.4,1.3,2.6,1s2-1.6,2.2-2S10.5-1.1,9.2-0.6"/>
		<path class="st4" d="M6.8,0.1c0,0-1.3,0.3-1.3,0.9s1.9-0.6,2.4-0.8S7.8-0.2,6.8,0.1"/>
		<path class="st2" d="M-3.5,1.1c-0.7,1.2-2.3,2.1-4.1,2.1c-2.5,0-4.1-1.7-4.5-3.6c-0.1-0.5-0.1-1.1,0-1.5c-1.2-0.5-1.8,0-1.8,0
			s0.1-0.8,0.9-0.8c0.3,0,0.8,0.1,1.2,0.2l0,0l7.2,2.5l2.9,1C-1.5,0.9-2.6,1-3.5,1.1L-3.5,1.1z"/>
		<path class="st3" d="M-12-1.3c0,0,0.3-0.5,1.2-0.3s7.1,2.4,7.1,2.4s-1,2.3-4.3,2.1C-11.6,2.7-12.3-0.9-12-1.3"/>
		<path class="st6" d="M-9-0.6c0,0,4,1,3.8,1.7s-1.4,1.3-2.6,1s-2-1.6-2.2-2S-10.3-1.1-9-0.6"/>
		<path class="st4" d="M-6.5,0.1c0,0,1.3,0.3,1.3,0.9s-1.9-0.6-2.4-0.8S-7.6-0.2-6.5,0.1"/>
		<path class="st7" d="M-11.8,1.3L-6,3.1C-6,3.1-9,4.3-11.8,1.3"/>
		<path class="st8" d="M12.1,1.3L6.4,3.1C6.4,3.1,9.3,4.3,12.1,1.3"/>
	</g>
</symbol>
<use xlink:href="#C"  width="64" height="34" id="XMLID_1_" x="-32" y="-17" transform="matrix(7.8024 0 0 7.8024 420.5 298.8898)" style="overflow:visible;"/>
</svg>
